# xmcd CD database file
#
# Track frame offsets:
#	182
#	14115
#	27927
#	44690
#	60830
#	74772
#	90687
#	104417
#	119737
#	130770
#	148900
#	168982
#
# Disc length: 2424 seconds
#
# Revision: 2
# Processed by: cddbd v1.5.1PL0 Copyright (c) Steve Scherf et al.
# Submitted via: CDex 1.51
#
DISCID=b609760c
DTITLE=Johnny Mathis - Johnny Mathis Grandes Momentos
DYEAR=1900
DGENRE=Blues
TTITLE0=It's not for me to say
TTITLE1=Chances Are
TTITLE2=Maria
TTITLE3=Misty
TTITLE4=Come to me
TTITLE5=Secret Love
TTITLE6=My love for you
TTITLE7=Warm
TTITLE8=Wild is the wind
TTITLE9=Stranger in Paradise
TTITLE10=Blue Gardenia
TTITLE11=Wanderful! Wanderful!
EXTD=
EXTT0=
EXTT1=
EXTT2=
EXTT3=
EXTT4=
EXTT5=
EXTT6=
EXTT7=
EXTT8=
EXTT9=
EXTT10=
EXTT11=
PLAYORDER=
